<svg width="319" height="319" viewBox="0 0 319 319" fill="none" xmlns="http://www.w3.org/2000/svg">
<g clip-path="url(#clip0)">
<path d="M159.12 219.045C148.499 218.977 138.065 218.441 128.004 217.485C134.215 249.449 145.616 270.819 158.785 270.904C171.955 270.989 183.63 249.767 190.253 217.886C180.18 218.711 169.74 219.113 159.12 219.045Z" fill="url(#paint0_linear)"/>
<path d="M160.221 48.1032C147.052 48.0184 135.376 69.2399 128.753 101.121C138.826 100.296 149.266 99.8937 159.887 99.9621C170.508 100.031 180.942 100.567 191.003 101.522C184.791 69.5583 173.39 48.1881 160.221 48.1032Z" fill="url(#paint1_linear)"/>
<path d="M111.241 245.143C108.271 235.874 105.858 225.455 104.029 214.266C92.8647 212.293 82.4779 209.747 73.2475 206.656C64.4408 203.708 56.7789 200.304 50.3539 196.491C61.689 229.841 87.9108 256.402 121.111 268.166C117.382 261.691 114.076 253.987 111.241 245.143Z" fill="url(#paint2_linear)"/>
<path d="M197.896 50.8414C201.625 57.3157 204.93 65.0196 207.765 73.8635C210.735 83.1329 213.148 93.5517 214.977 104.741C226.142 106.713 236.529 109.259 245.759 112.35C254.566 115.298 262.227 118.703 268.653 122.515C257.317 89.1653 231.096 62.6035 197.896 50.8414Z" fill="url(#paint3_linear)"/>
<path d="M245.143 207.765C235.874 210.735 225.455 213.148 214.266 214.977C212.293 226.142 209.747 236.529 206.656 245.759C203.708 254.566 200.304 262.227 196.491 268.652C229.841 257.317 256.402 231.096 268.166 197.896C261.691 201.625 253.987 204.93 245.143 207.765Z" fill="url(#paint4_linear)"/>
<path d="M50.8414 121.11C57.3144 117.382 65.0195 114.076 73.8635 111.242C83.1329 108.272 93.5517 105.859 104.741 104.03C106.713 92.8653 109.259 82.4785 112.35 73.2482C115.298 64.4415 118.703 56.7802 122.515 50.3545C89.1653 61.6884 62.6047 87.9102 50.8414 121.11Z" fill="url(#paint5_linear)"/>
<path d="M160.518 2.00651L160.369 25.0546C160.657 25.0564 160.943 25.0675 161.231 25.0706C234.68 26.0083 293.955 86.0526 293.946 159.507C293.946 159.795 293.954 160.081 293.952 160.369C293.95 160.657 293.939 160.943 293.935 161.231C293.7 179.831 289.751 197.789 282.178 214.619C274.746 231.136 264.209 245.781 250.861 258.148C225.907 281.27 193.477 293.96 159.465 293.946C159.188 293.946 158.913 293.952 158.637 293.951C158.349 293.949 158.063 293.938 157.775 293.935C84.3268 292.996 25.0519 232.953 25.0601 159.498C25.0601 159.21 25.0533 158.924 25.0552 158.636L2.0065 158.488C1.44697 245.331 71.6438 316.44 158.488 316.999C198.685 317.258 237.053 302.362 266.526 275.056C282.152 260.578 294.49 243.427 303.197 224.078C312.213 204.042 316.857 182.657 317 160.518C317.559 73.6745 247.361 2.56603 160.518 2.00651Z" fill="url(#paint6_linear)"/>
<path d="M52.2403 171.348V149.463C52.2403 149.006 52.4043 148.613 52.7325 148.285C53.0606 147.957 53.4649 147.793 53.9454 147.793H57.2149C57.6719 147.793 58.0586 147.957 58.375 148.285C58.7032 148.613 58.8672 149.006 58.8672 149.463V157.373H70.961V149.463C70.961 149.006 71.125 148.613 71.4532 148.285C71.7813 147.957 72.1739 147.793 72.6309 147.793H75.9004C76.3809 147.793 76.7793 147.957 77.0957 148.285C77.4239 148.613 77.5879 149.006 77.5879 149.463V171.348C77.5879 171.805 77.418 172.197 77.0782 172.525C76.75 172.842 76.3575 173 75.9004 173H72.6309C72.1739 173 71.7813 172.848 71.4532 172.543C71.125 172.227 70.961 171.84 70.961 171.383V162.348H58.8672V171.383C58.8672 171.84 58.7032 172.227 58.375 172.543C58.0586 172.848 57.6719 173 57.2149 173H53.9454C53.4883 173 53.0899 172.842 52.75 172.525C52.4102 172.197 52.2403 171.805 52.2403 171.348ZM80.5762 171.383L84.9883 154.648C86.1836 150.09 90.0743 147.805 96.6602 147.793H106.135C106.568 147.793 106.926 147.957 107.207 148.285C107.5 148.613 107.647 148.994 107.647 149.428V171.383C107.647 171.84 107.482 172.227 107.154 172.543C106.826 172.848 106.434 173 105.977 173H102.672C102.191 173 101.793 172.848 101.477 172.543C101.172 172.227 101.02 171.828 101.02 171.348V166.918H88.5215L87.3438 171.348C87.2266 171.828 86.9629 172.227 86.5528 172.543C86.1426 172.848 85.709 173 85.252 173H81.7891C81.3321 173 81.004 172.871 80.8047 172.613C80.6055 172.344 80.5059 172.109 80.5059 171.91C80.5176 171.711 80.5411 171.535 80.5762 171.383ZM89.8223 161.943H101.02V152.768H96.0098C94.8848 152.768 93.9004 153.09 93.0567 153.734C92.2247 154.367 91.6622 155.223 91.3692 156.301L89.8223 161.943ZM110.16 171.348V169.66C110.16 169.203 110.318 168.816 110.635 168.5C110.963 168.184 111.356 168.025 111.813 168.025H113.184L116.453 154.719C117.59 150.102 121.398 147.793 127.879 147.793H137.371C137.828 147.793 138.215 147.951 138.531 148.268C138.859 148.584 139.023 148.971 139.023 149.428V171.383C139.023 171.84 138.859 172.227 138.531 172.543C138.215 172.848 137.828 173 137.371 173H111.813C111.356 173 110.963 172.842 110.635 172.525C110.318 172.197 110.16 171.805 110.16 171.348ZM119.951 168.025H132.414V152.768H127.158C126.045 152.768 125.125 153.072 124.398 153.682C123.672 154.291 123.174 155.141 122.904 156.23L119.951 168.025ZM144.068 171.312V149.428C144.068 148.971 144.232 148.584 144.561 148.268C144.889 147.951 145.281 147.793 145.738 147.793H166.006C166.463 147.793 166.85 147.957 167.166 148.285C167.494 148.613 167.658 149.006 167.658 149.463V151.115C167.658 151.572 167.494 151.965 167.166 152.293C166.85 152.609 166.463 152.768 166.006 152.768H150.695V157.883H163.879C164.336 157.883 164.723 158.047 165.039 158.375C165.367 158.691 165.531 159.078 165.531 159.535V161.187C165.531 161.645 165.367 162.037 165.039 162.365C164.723 162.682 164.336 162.84 163.879 162.84H150.695V168.025H165.971C166.416 168.025 166.797 168.184 167.113 168.5C167.43 168.816 167.588 169.203 167.588 169.66V171.348C167.588 171.805 167.424 172.197 167.096 172.525C166.768 172.842 166.375 173 165.918 173H145.738C145.281 173 144.889 172.842 144.561 172.525C144.232 172.197 144.068 171.793 144.068 171.312ZM168.994 148.479C168.994 147.998 169.27 147.758 169.82 147.758H173.881C174.936 147.758 175.779 148.326 176.412 149.463L179.137 154.314C179.84 155.568 180.578 156.477 181.352 157.039C182.137 157.602 183.045 157.883 184.076 157.883H184.867V149.463C184.867 149.006 185.025 148.607 185.342 148.268C185.67 147.928 186.063 147.758 186.52 147.758H189.842C190.299 147.758 190.686 147.928 191.002 148.268C191.33 148.607 191.494 149.006 191.494 149.463V157.883H192.285C193.316 157.883 194.219 157.602 194.992 157.039C195.777 156.477 196.516 155.568 197.207 154.314L199.949 149.463C200.57 148.326 201.408 147.758 202.463 147.758H206.541C206.998 147.758 207.273 147.916 207.367 148.232V148.479C207.367 148.771 207.273 149.1 207.086 149.463L203.272 156.371C202.709 157.379 202.088 158.211 201.408 158.867C200.729 159.523 199.832 159.986 198.719 160.256C199.492 160.42 200.283 160.906 201.092 161.715C201.912 162.523 202.639 163.402 203.272 164.352L207.648 171.348C207.965 171.863 208.053 172.268 207.912 172.561C207.783 172.854 207.496 173 207.051 173H203.008C202.551 173 202.059 172.842 201.531 172.525C201.004 172.197 200.6 171.805 200.318 171.348L197.207 166.443C196.469 165.248 195.725 164.352 194.975 163.754C194.236 163.145 193.34 162.84 192.285 162.84H191.494V171.383C191.494 171.84 191.33 172.227 191.002 172.543C190.686 172.848 190.299 173 189.842 173H186.52C186.063 173 185.67 172.848 185.342 172.543C185.025 172.227 184.867 171.84 184.867 171.383V162.84H184.076C183.022 162.84 182.119 163.145 181.369 163.754C180.631 164.352 179.887 165.248 179.137 166.443L176.043 171.348C175.762 171.805 175.357 172.197 174.83 172.525C174.303 172.842 173.811 173 173.354 173H169.311C168.854 173 168.566 172.842 168.449 172.525C168.402 172.432 168.379 172.297 168.379 172.121C168.379 171.934 168.484 171.676 168.695 171.348L173.09 164.352C173.723 163.402 174.443 162.523 175.252 161.715C176.072 160.906 176.863 160.42 177.625 160.256C176.523 159.986 175.627 159.523 174.936 158.867C174.256 158.211 173.641 157.379 173.09 156.371L169.275 149.463C169.088 149.1 168.994 148.771 168.994 148.479ZM208 171.348V169.66C208 169.203 208.158 168.816 208.475 168.5C208.803 168.184 209.195 168.025 209.652 168.025H211.023L214.293 154.719C215.43 150.102 219.238 147.793 225.719 147.793H235.211C235.668 147.793 236.055 147.951 236.371 148.268C236.699 148.584 236.863 148.971 236.863 149.428V171.383C236.863 171.84 236.699 172.227 236.371 172.543C236.055 172.848 235.668 173 235.211 173H209.652C209.195 173 208.803 172.842 208.475 172.525C208.158 172.197 208 171.805 208 171.348ZM217.791 168.025H230.254V152.768H224.998C223.885 152.768 222.965 153.072 222.238 153.682C221.512 154.291 221.014 155.141 220.744 156.23L217.791 168.025ZM239.834 171.383L244.246 154.648C245.441 150.09 249.332 147.805 255.918 147.793H265.393C265.826 147.793 266.184 147.957 266.465 148.285C266.758 148.613 266.904 148.994 266.904 149.428V171.383C266.904 171.84 266.74 172.227 266.412 172.543C266.084 172.848 265.691 173 265.234 173H261.93C261.449 173 261.051 172.848 260.734 172.543C260.43 172.227 260.277 171.828 260.277 171.348V166.918H247.779L246.602 171.348C246.484 171.828 246.221 172.227 245.811 172.543C245.4 172.848 244.967 173 244.51 173H241.047C240.59 173 240.262 172.871 240.063 172.613C239.863 172.344 239.764 172.109 239.764 171.91C239.775 171.711 239.799 171.535 239.834 171.383ZM249.08 161.943H260.277V152.768H255.268C254.143 152.768 253.158 153.09 252.314 153.734C251.482 154.367 250.92 155.223 250.627 156.301L249.08 161.943Z" fill="url(#paint7_linear)"/>
</g>
<defs>
<linearGradient id="paint0_linear" x1="159.128" y1="217.685" x2="158.785" y2="270.904" gradientUnits="userSpaceOnUse">
<stop stop-color="#4568DC"/>
<stop offset="1" stop-color="#B06AB3" stop-opacity="0.39"/>
</linearGradient>
<linearGradient id="paint1_linear" x1="160.221" y1="48.1032" x2="159.878" y2="101.322" gradientUnits="userSpaceOnUse">
<stop stop-color="#4568DC"/>
<stop offset="1" stop-color="#B06AB3" stop-opacity="0.39"/>
</linearGradient>
<linearGradient id="paint2_linear" x1="85.962" y1="196.721" x2="85.5031" y2="267.936" gradientUnits="userSpaceOnUse">
<stop stop-color="#4568DC"/>
<stop offset="1" stop-color="#B06AB3" stop-opacity="0.39"/>
</linearGradient>
<linearGradient id="paint3_linear" x1="233.504" y1="51.0708" x2="233.045" y2="122.286" gradientUnits="userSpaceOnUse">
<stop stop-color="#4568DC"/>
<stop offset="1" stop-color="#B06AB3" stop-opacity="0.39"/>
</linearGradient>
<linearGradient id="paint4_linear" x1="232.558" y1="197.667" x2="232.099" y2="268.881" gradientUnits="userSpaceOnUse">
<stop stop-color="#4568DC"/>
<stop offset="1" stop-color="#B06AB3" stop-opacity="0.39"/>
</linearGradient>
<linearGradient id="paint5_linear" x1="86.9077" y1="50.1251" x2="86.4489" y2="121.339" gradientUnits="userSpaceOnUse">
<stop stop-color="#4568DC"/>
<stop offset="1" stop-color="#B06AB3" stop-opacity="0.39"/>
</linearGradient>
<linearGradient id="paint6_linear" x1="160.518" y1="2.00651" x2="158.488" y2="316.999" gradientUnits="userSpaceOnUse">
<stop stop-color="#4568DC"/>
<stop offset="1" stop-color="#B06AB3" stop-opacity="0.39"/>
</linearGradient>
<linearGradient id="paint7_linear" x1="172" y1="63" x2="214.52" y2="306.278" gradientUnits="userSpaceOnUse">
<stop stop-color="#4568DC"/>
<stop offset="1" stop-color="#B06AB3" stop-opacity="0.72"/>
</linearGradient>
<clipPath id="clip0">
<rect x="3.02122" y="0.991776" width="315" height="315" transform="rotate(0.369145 3.02122 0.991776)" fill="white"/>
</clipPath>
</defs>
</svg>
